<svg width="79" height="83" viewBox="0 0 79 83" fill="none" xmlns="http://www.w3.org/2000/svg">
<path fill-rule="evenodd" clip-rule="evenodd" d="M48.0047 7.91062L61.3264 30.9838L74.6474 54.0564C76.4508 57.1792 76.4508 60.7545 74.648 63.8772C72.8446 67.0003 69.749 68.7878 66.1427 68.7878H39.5H12.8574C9.25111 68.7878 6.15554 67.0003 4.35209 63.8772C2.54921 60.7545 2.54921 57.1792 4.35266 54.0564L17.6738 30.9838L30.9953 7.91062C32.7982 4.7878 35.8943 3 39.5 3C43.1063 3 46.2019 4.78747 48.0047 7.91062Z" stroke="#2AF4C2" stroke-width="5" stroke-miterlimit="22.9256" stroke-linejoin="round"/>
<path fill-rule="evenodd" clip-rule="evenodd" d="M48.0047 75.15L61.3264 52.0768L74.6474 29.0042C76.4508 25.8813 76.4508 22.3061 74.648 19.1834C72.8446 16.0603 69.749 14.2728 66.1427 14.2728H39.5H12.8574C9.25111 14.2728 6.15554 16.0603 4.35209 19.1834C2.54921 22.3061 2.54921 25.8813 4.35266 29.0042L17.6738 52.0768L30.9953 75.15C32.7982 78.2728 35.8943 80.0606 39.5 80.0606C43.1063 80.0606 46.2019 78.2731 48.0047 75.15Z" stroke="#2AF4C2" stroke-width="5" stroke-miterlimit="22.9256" stroke-linejoin="round"/>
<path fill-rule="evenodd" clip-rule="evenodd" d="M41.9854 49.6307L45.435 43.6558L48.8846 37.6808C49.3516 36.8723 49.3516 35.9463 48.8848 35.1378C48.4178 34.329 47.6161 33.8662 46.6822 33.8662H39.7829H32.8836C31.9497 33.8662 31.1481 34.329 30.681 35.1378C30.2142 35.9463 30.2142 36.8723 30.6812 37.6808L34.1308 43.6558L37.5804 49.6307C38.0472 50.4392 38.8491 50.9023 39.7828 50.9023C40.7167 50.9023 41.5183 50.4394 41.9852 49.6307H41.9854Z" stroke="#2AF4C2" stroke-width="5" stroke-miterlimit="22.9256" stroke-linejoin="round"/>
</svg>
