<svg width="128" height="128" viewBox="0 0 128 128" fill="none" xmlns="http://www.w3.org/2000/svg">
<rect width="128" height="128" rx="18" fill="#020B20"/>
<path d="M32.8168 59.4929C32.7372 58.6908 32.3958 58.0677 31.7926 57.6236C31.1894 57.1794 30.3707 56.9574 29.3366 56.9574C28.634 56.9574 28.0407 57.0568 27.5568 57.2557C27.0729 57.4479 26.7017 57.7164 26.4432 58.0611C26.1913 58.4058 26.0653 58.7969 26.0653 59.2344C26.0521 59.599 26.1283 59.9171 26.294 60.1889C26.4664 60.4607 26.7017 60.696 27 60.8949C27.2983 61.0871 27.643 61.2562 28.0341 61.402C28.4252 61.5412 28.8428 61.6605 29.2869 61.7599L31.1165 62.1974C32.0047 62.3963 32.8201 62.6615 33.5625 62.9929C34.3049 63.3243 34.9479 63.732 35.4915 64.2159C36.035 64.6998 36.456 65.2699 36.7543 65.9261C37.0592 66.5824 37.215 67.3348 37.2216 68.1832C37.215 69.4295 36.8968 70.5099 36.267 71.4247C35.6439 72.3329 34.7424 73.0388 33.5625 73.5426C32.3892 74.0398 30.974 74.2884 29.3168 74.2884C27.6728 74.2884 26.241 74.0365 25.0213 73.5327C23.8082 73.0289 22.8603 72.2831 22.1776 71.2955C21.5014 70.3011 21.1468 69.0715 21.1136 67.6065H25.2798C25.3262 68.2893 25.5218 68.8594 25.8665 69.3168C26.2178 69.7675 26.6851 70.1089 27.2685 70.3409C27.8584 70.5663 28.5246 70.679 29.267 70.679C29.9962 70.679 30.6293 70.5729 31.1662 70.3608C31.7098 70.1487 32.1307 69.8537 32.429 69.4759C32.7273 69.098 32.8764 68.6638 32.8764 68.1733C32.8764 67.7159 32.7405 67.3314 32.4688 67.0199C32.2036 66.7083 31.8125 66.4432 31.2955 66.2244C30.785 66.0057 30.1586 65.8068 29.4162 65.6278L27.1989 65.071C25.482 64.6534 24.1264 64.0005 23.1321 63.1122C22.1378 62.224 21.6439 61.0275 21.6506 59.5227C21.6439 58.2898 21.9721 57.2126 22.6349 56.2912C23.3045 55.3698 24.2225 54.6506 25.3892 54.1335C26.5559 53.6165 27.8816 53.358 29.3665 53.358C30.8778 53.358 32.197 53.6165 33.3239 54.1335C34.4574 54.6506 35.339 55.3698 35.9688 56.2912C36.5985 57.2126 36.9233 58.2798 36.9432 59.4929H32.8168ZM48.1616 58.7273V61.9091H38.9641V58.7273H48.1616ZM41.0522 55.0682H45.288V69.3068C45.288 69.6979 45.3477 70.0028 45.467 70.2216C45.5863 70.4337 45.752 70.5829 45.9641 70.669C46.1829 70.7552 46.4348 70.7983 46.7198 70.7983C46.9187 70.7983 47.1175 70.7817 47.3164 70.7486C47.5153 70.7088 47.6677 70.679 47.7738 70.6591L48.44 73.8111C48.2279 73.8774 47.9296 73.9536 47.5451 74.0398C47.1606 74.1326 46.6933 74.1889 46.1431 74.2088C45.1223 74.2486 44.2274 74.1127 43.4585 73.8011C42.6961 73.4896 42.1029 73.0057 41.6786 72.3494C41.2544 71.6932 41.0456 70.8646 41.0522 69.8636V55.0682ZM60.7148 67.4972V58.7273H64.9506V74H60.8839V71.2259H60.7248C60.3801 72.1207 59.8067 72.84 59.0046 73.3835C58.2092 73.9271 57.238 74.1989 56.0913 74.1989C55.0704 74.1989 54.1722 73.9669 53.3967 73.5028C52.6211 73.0388 52.0146 72.3793 51.5771 71.5241C51.1462 70.669 50.9274 69.6449 50.9208 68.4517V58.7273H55.1566V67.696C55.1632 68.5975 55.4052 69.3101 55.8825 69.8338C56.3597 70.3575 56.9994 70.6193 57.8015 70.6193C58.3119 70.6193 58.7892 70.5033 59.2333 70.2713C59.6774 70.0327 60.0354 69.6813 60.3072 69.2173C60.5856 68.7533 60.7215 68.1799 60.7148 67.4972ZM72.5746 65.1705V74H68.3388V58.7273H72.3757V61.4219H72.5547C72.8928 60.5336 73.4595 59.831 74.255 59.3139C75.0504 58.7902 76.0149 58.5284 77.1484 58.5284C78.209 58.5284 79.1338 58.7604 79.9226 59.2244C80.7114 59.6884 81.3246 60.3513 81.7621 61.2131C82.1996 62.0682 82.4183 63.089 82.4183 64.2756V74H78.1825V65.0312C78.1892 64.0966 77.9505 63.3674 77.4666 62.8438C76.9827 62.3134 76.3165 62.0483 75.468 62.0483C74.898 62.0483 74.3942 62.1709 73.9567 62.4162C73.5258 62.6615 73.1877 63.0194 72.9425 63.4901C72.7038 63.9541 72.5812 64.5142 72.5746 65.1705ZM89.5948 69.6051L89.6048 64.5241H90.2212L95.1133 58.7273H99.9755L93.4031 66.4034H92.3988L89.5948 69.6051ZM85.7567 74V53.6364H89.9925V74H85.7567ZM95.3022 74L90.8079 67.348L93.6317 64.3551L100.264 74H95.3022ZM104.529 74.2585C103.873 74.2585 103.31 74.0265 102.839 73.5625C102.375 73.0919 102.143 72.5284 102.143 71.8722C102.143 71.2225 102.375 70.6657 102.839 70.2017C103.31 69.7377 103.873 69.5057 104.529 69.5057C105.166 69.5057 105.723 69.7377 106.2 70.2017C106.677 70.6657 106.916 71.2225 106.916 71.8722C106.916 72.3097 106.803 72.7107 106.578 73.0753C106.359 73.4332 106.071 73.7216 105.713 73.9403C105.355 74.1525 104.96 74.2585 104.529 74.2585Z" fill="white"/>
</svg>
